<svg width="17" height="17" viewBox="0 0 17 17" fill="none" xmlns="http://www.w3.org/2000/svg">
<path d="M7.79169 2.83334H2.83335C2.45763 2.83334 2.0973 2.98259 1.83162 3.24827C1.56594 3.51394 1.41669 3.87428 1.41669 4.25V14.1667C1.41669 14.5424 1.56594 14.9027 1.83162 15.1684C2.0973 15.4341 2.45763 15.5833 2.83335 15.5833H12.75C13.1257 15.5833 13.4861 15.4341 13.7518 15.1684C14.0174 14.9027 14.1667 14.5424 14.1667 14.1667V9.20834" stroke="#F1F1F1" stroke-width="2" stroke-linecap="round" stroke-linejoin="round"/>
<path d="M13.1042 1.77084C13.386 1.48904 13.7682 1.33073 14.1667 1.33073C14.5652 1.33073 14.9474 1.48904 15.2292 1.77084C15.511 2.05263 15.6693 2.43482 15.6693 2.83334C15.6693 3.23185 15.511 3.61404 15.2292 3.89584L8.50002 10.625L5.66669 11.3333L6.37502 8.5L13.1042 1.77084Z" stroke="#F1F1F1" stroke-width="2" stroke-linecap="round" stroke-linejoin="round"/>
</svg>
