<svg width="17" height="17" viewBox="0 0 17 17" fill="none" xmlns="http://www.w3.org/2000/svg">
<path d="M2.125 4.25H3.54167H14.875" stroke="#F1F1F1" stroke-width="2" stroke-linecap="round" stroke-linejoin="round"/>
<path d="M5.66669 4.25V2.83333C5.66669 2.45761 5.81594 2.09727 6.08162 1.8316C6.3473 1.56592 6.70763 1.41666 7.08335 1.41666H9.91669C10.2924 1.41666 10.6527 1.56592 10.9184 1.8316C11.1841 2.09727 11.3334 2.45761 11.3334 2.83333V4.25M13.4584 4.25V14.1667C13.4584 14.5424 13.3091 14.9027 13.0434 15.1684C12.7777 15.4341 12.4174 15.5833 12.0417 15.5833H4.95835C4.58263 15.5833 4.2223 15.4341 3.95662 15.1684C3.69094 14.9027 3.54169 14.5424 3.54169 14.1667V4.25H13.4584Z" stroke="#F1F1F1" stroke-width="2" stroke-linecap="round" stroke-linejoin="round"/>
<path d="M7.08331 7.79167V12.0417" stroke="#F1F1F1" stroke-width="2" stroke-linecap="round" stroke-linejoin="round"/>
<path d="M9.91669 7.79167V12.0417" stroke="#F1F1F1" stroke-width="2" stroke-linecap="round" stroke-linejoin="round"/>
</svg>
